<?xml version="1.0" encoding="UTF-8" standalone="no"?>
<!DOCTYPE svg PUBLIC "-//W3C//DTD SVG 1.1//EN" "http://www.w3.org/Graphics/SVG/1.1/DTD/svg11.dtd">
<svg width="100%" height="100%" viewBox="0 0 1040 586" version="1.1" xmlns="http://www.w3.org/2000/svg" xmlns:xlink="http://www.w3.org/1999/xlink" xml:space="preserve" xmlns:serif="http://www.serif.com/" style="fill-rule:evenodd;clip-rule:evenodd;stroke-linejoin:round;stroke-miterlimit:2;">
    <g transform="matrix(1.09059,0,0,1.09059,-47.0787,-112.838)">
        <path d="M120.133,457.467L155.019,173.333C155.411,171.374 156.293,169.708 157.664,168.336C159.036,166.964 160.702,166.279 162.662,166.279L285.535,166.279C315.714,166.279 339.525,175.881 356.966,195.086C374.407,214.291 383.128,239.963 383.128,272.102C383.128,281.509 382.736,288.76 381.952,293.855C379.209,315.804 372.84,335.499 362.845,352.94C352.851,370.381 340.211,384.393 324.925,394.976C324.141,395.368 323.553,395.858 323.161,396.446C322.769,397.033 322.769,397.719 323.161,398.503L332.187,454.386L409.348,453.266L501.886,172.746C503.062,168.434 505.805,166.279 510.117,166.279L603.007,166.279C607.71,166.279 610.062,168.434 610.062,172.746L633.031,450.016L722.298,448.72L725.292,424.959L724.704,421.432L675.32,174.509L675.32,172.158C675.32,168.238 677.475,166.279 681.787,166.279L767.034,166.279C770.561,166.279 772.717,168.434 773.501,172.746L786.435,302.086C786.435,303.654 786.925,304.438 787.905,304.438C788.884,304.438 789.57,303.654 789.962,302.086L834.056,172.746C836.015,168.434 838.759,166.279 842.286,166.279L928.121,166.279C930.473,166.279 932.041,167.062 932.824,168.63C933.608,170.198 933.412,172.158 932.237,174.509L820.534,421.432L819.946,424.959L817.125,447.342L840.427,447.004C844.811,446.212 848.849,444.099 851.999,440.949C855.15,437.798 857.262,433.761 858.054,429.377L869.41,366.526C870.262,361.814 874.364,358.387 879.152,358.387C883.94,358.387 888.042,361.814 888.893,366.526L900.249,429.377C901.042,433.761 903.154,437.798 906.305,440.949C909.455,444.099 913.492,446.212 917.877,447.004L980.727,458.36C985.439,459.211 988.867,463.313 988.867,468.101C988.867,472.89 985.439,476.991 980.727,477.843L917.877,489.199C913.492,489.991 909.455,492.104 906.305,495.254C903.154,498.404 901.042,502.442 900.249,506.826L888.893,569.677C888.042,574.389 883.94,577.816 879.152,577.816C874.364,577.816 870.262,574.389 869.41,569.677L858.054,506.826C857.262,502.442 855.15,498.404 851.999,495.254C848.849,492.104 844.811,489.991 840.427,489.199L811.903,488.784L801.72,569.585C801.72,571.545 800.937,573.211 799.369,574.582C797.801,575.954 796.037,576.64 794.078,576.64L713.534,576.64C709.222,576.64 707.067,574.288 707.067,569.585L717.422,487.412L636.031,486.23L642.985,570.173L642.985,571.937C642.985,575.856 640.829,577.816 636.518,577.816L553.622,577.816C549.311,577.816 547.155,575.66 547.155,571.349L545.979,520.201C546.371,519.417 546.175,518.731 545.391,518.143C544.608,517.555 543.824,517.261 543.04,517.261L481.309,517.261C478.958,517.261 477.782,518.241 477.782,520.201L464.848,571.349C463.672,575.66 460.928,577.816 456.617,577.816L375.485,577.816C370.782,577.816 369.214,575.268 370.782,570.173L399.606,482.796L336.628,481.881L350.793,569.585L350.793,570.761C350.793,575.464 348.637,577.816 344.326,577.816L260.843,577.816C256.531,577.816 254.18,575.856 253.788,571.937L242.403,480.512L211.953,480.07L200.876,570.761C200.484,572.721 199.602,574.386 198.23,575.758C196.858,577.13 195.193,577.816 193.233,577.816L112.101,577.816C110.142,577.816 108.574,577.13 107.398,575.758C106.222,574.386 105.83,572.721 106.222,570.761L117.526,478.698L58.643,477.843C53.931,476.991 50.504,472.89 50.504,468.101C50.504,463.313 53.931,459.211 58.643,458.36L120.133,457.467ZM239.317,455.735L234.387,416.141C233.995,414.573 233.015,413.789 231.447,413.789L223.216,413.789C221.649,413.789 220.473,414.769 219.689,416.728L214.881,456.09L239.317,455.735ZM500.122,439.069C500.122,441.029 500.71,442.009 501.886,442.009L540.1,442.009C542.06,442.009 543.04,441.029 543.04,439.069L538.924,305.025C538.924,303.458 538.532,302.674 537.749,302.674C536.965,302.674 536.181,303.458 535.397,305.025L500.122,439.069ZM243.205,249.762C241.638,249.762 240.462,250.742 239.678,252.701L229.683,336.185C229.683,338.144 230.467,339.124 232.035,339.124L247.909,339.124C259.667,339.124 269.269,334.323 276.716,324.72C284.163,315.118 287.887,301.89 287.887,285.036C287.887,273.67 285.339,264.95 280.244,258.874C275.149,252.799 268.094,249.762 259.079,249.762L243.205,249.762Z" style="fill:white;"/>
    </g>
</svg>
