<?xml version="1.0" encoding="UTF-8" standalone="no"?>
<!DOCTYPE svg PUBLIC "-//W3C//DTD SVG 1.1//EN" "http://www.w3.org/Graphics/SVG/1.1/DTD/svg11.dtd">
<svg width="100%" height="100%" viewBox="0 0 1024 1024" version="1.1" xmlns="http://www.w3.org/2000/svg" xmlns:xlink="http://www.w3.org/1999/xlink" xml:space="preserve" xmlns:serif="http://www.serif.com/" style="fill-rule:evenodd;clip-rule:evenodd;stroke-linejoin:round;stroke-miterlimit:2;">
    <g>
        <path d="M512,29C778.575,29 995,245.425 995,512C995,778.575 778.575,995 512,995C245.425,995 29,778.575 29,512C29,245.425 245.425,29 512,29ZM279.148,697.107L354.249,697.107C358.127,697.107 360.067,694.992 360.067,690.761L360.067,689.703L335.209,535.8C334.857,535.094 334.857,534.477 335.209,533.948C335.562,533.42 336.091,532.979 336.796,532.626C350.547,523.106 361.918,510.502 370.909,494.811C379.899,479.121 385.629,461.404 388.097,441.659C388.802,437.076 389.155,430.553 389.155,422.091C389.155,393.179 381.31,370.084 365.62,352.808C349.93,335.531 328.51,326.893 301.361,326.893L190.826,326.893C189.063,326.893 187.564,327.51 186.33,328.744C185.096,329.978 184.303,331.476 183.95,333.239L140.053,690.761C139.701,692.524 140.053,694.022 141.111,695.256C142.169,696.49 143.579,697.107 145.342,697.107L218.327,697.107C220.09,697.107 221.589,696.49 222.823,695.256C224.057,694.022 224.85,692.524 225.203,690.761L242.127,552.195C242.832,550.432 243.89,549.55 245.3,549.55L252.704,549.55C254.115,549.55 254.996,550.256 255.349,551.666L272.802,691.819C273.154,695.344 275.27,697.107 279.148,697.107ZM263.282,401.993L277.562,401.993C285.671,401.993 292.018,404.726 296.601,410.191C301.185,415.656 303.477,423.501 303.477,433.726C303.477,448.887 300.127,460.787 293.428,469.425C286.729,478.064 278.09,482.383 267.513,482.383L253.233,482.383C251.823,482.383 251.118,481.501 251.118,479.738L260.109,404.638C260.814,402.875 261.871,401.993 263.282,401.993ZM542.529,697.107L617.101,697.107C620.98,697.107 622.919,695.344 622.919,691.819L622.919,690.232L593.302,332.71C593.302,328.832 591.186,326.893 586.955,326.893L503.393,326.893C499.514,326.893 497.046,328.832 495.988,332.71L378.048,690.232C376.638,694.816 378.048,697.107 382.279,697.107L455.265,697.107C459.143,697.107 461.611,695.168 462.669,691.29L474.304,645.277C474.304,643.514 475.362,642.633 477.477,642.633L533.01,642.633C533.715,642.633 534.42,642.897 535.125,643.426C535.83,643.955 536.007,644.572 535.654,645.277L536.712,691.29C536.712,695.168 538.651,697.107 542.529,697.107ZM494.402,572.292L526.134,451.708C526.839,450.298 527.545,449.592 528.25,449.592C528.955,449.592 529.308,450.298 529.308,451.708L533.01,572.292C533.01,574.055 532.128,574.937 530.365,574.937L495.988,574.937C494.93,574.937 494.402,574.055 494.402,572.292ZM686.384,696.05L758.841,696.05C760.604,696.05 762.19,695.433 763.601,694.199C765.011,692.964 765.716,691.466 765.716,689.703L782.111,559.599L782.64,556.426L883.127,334.297C884.185,332.181 884.361,330.418 883.656,329.008C882.951,327.598 881.54,326.893 879.425,326.893L802.209,326.893C799.035,326.893 796.567,328.832 794.804,332.71L755.139,449.063C754.786,450.474 754.169,451.179 753.287,451.179C752.406,451.179 751.965,450.474 751.965,449.063L740.33,332.71C739.625,328.832 737.686,326.893 734.512,326.893L657.825,326.893C653.946,326.893 652.007,328.656 652.007,332.181L652.007,334.297L696.433,556.426L696.962,559.599L680.567,689.703C680.567,693.934 682.506,696.05 686.384,696.05Z" style="fill:white;"/>
    </g>
</svg>
